<svg width="60" height="60" viewBox="0 0 60 60" fill="none" xmlns="http://www.w3.org/2000/svg">
<g clip-path="url(#clip0_423_45)">
<path d="M30 60C46.5685 60 60 46.5685 60 30C60 13.4315 46.5685 0 30 0C13.4315 0 0 13.4315 0 30C0 46.5685 13.4315 60 30 60Z" fill="#05A3C9"/>
<path fill-rule="evenodd" clip-rule="evenodd" d="M25.3876 11.3749C22.9216 12.6783 20.904 13.7812 20.9045 13.826C20.9056 13.9418 26.8229 16.9824 27.033 16.975C27.1285 16.9717 27.8216 16.648 28.573 16.2557L29.9396 15.5426L31.432 16.3209L32.9243 17.0994L35.3683 15.9852C39.0509 14.3062 39.4334 14.1222 39.3734 14.0604C39.2939 13.9784 37.973 13.2584 34.3894 11.3442C32.6575 10.419 30.9765 9.51194 30.6538 9.32839C30.3311 9.14484 30.0231 8.99718 29.9693 9.00004C29.9154 9.0029 27.8536 10.0716 25.3876 11.3749ZM14.5717 17.0576L12.0046 18.4029V24.3074C12.0046 27.5549 12.0383 30.2119 12.0797 30.2119C12.1209 30.2119 13.3839 29.6564 14.8863 28.9775L17.618 27.743V21.5193L18.9528 22.2572C19.9815 22.8253 21.0107 23.3922 22.0406 23.958L23.7934 24.9209L24.5734 24.563C25.0625 24.3382 25.5507 24.1112 26.0379 23.8821C26.4144 23.7042 27.3385 23.2819 28.0915 22.9434C28.8445 22.6048 29.5416 22.2643 29.6404 22.1867C29.7717 22.0836 28.1707 21.186 23.7188 18.8664C20.363 17.118 17.5097 15.693 17.3781 15.6998C17.2465 15.7066 15.9836 16.3175 14.5717 17.0576ZM39.8361 17.4354C38.0877 18.2362 36.656 18.9234 36.6544 18.9626C36.6529 19.0017 37.6058 19.5766 38.7721 20.2399C39.9383 20.9033 40.8926 21.4816 40.8926 21.5251C40.8926 21.5686 39.8606 22.0759 38.5994 22.6528C37.338 23.2295 34.1498 24.6903 31.5143 25.8991L22.6836 29.949C20.4622 30.9679 18.4599 31.8862 18.2341 31.99C13.6968 34.074 12.4497 34.6523 12.2785 34.7515C12.1062 34.8515 12.0672 35.432 12.0366 38.346L12 41.8215L14.2956 43.0083L16.5911 44.195L19.7743 42.7374C21.5251 41.9358 22.9574 41.238 22.9574 41.1866C22.9574 41.1353 22.6339 40.9214 22.2387 40.7111C21.8432 40.5008 21.027 40.0351 20.4246 39.6762C19.8222 39.3172 19.2216 38.9878 19.0897 38.9441C18.9579 38.9006 18.8519 38.8244 18.8541 38.7747C18.8563 38.7251 20.258 38.0496 21.9688 37.2734C25.2917 35.766 27.8347 34.6042 33.2941 32.0992C35.7354 30.9793 38.1769 29.8602 40.6188 28.7416C42.7648 27.7588 45.26 26.611 46.1636 26.1909L47.8065 25.4271L47.8431 21.912L47.8798 18.3971L45.5515 17.1846C44.2709 16.5178 43.1762 15.9738 43.1189 15.9758C43.0615 15.9776 41.5843 16.6344 39.8361 17.4354ZM47.1828 30.1164C46.8397 30.2864 46.162 30.6048 45.6768 30.8238C45.1916 31.0428 44.2709 31.4643 43.6308 31.7606L42.467 32.2991L42.4405 35.3851C42.4258 37.0823 42.3642 38.4634 42.3036 38.4544C42.1659 38.4336 39.9848 37.2987 37.7923 36.1067C36.2099 35.2465 36.1105 35.2123 35.7386 35.3992C35.5237 35.5072 34.2388 36.0919 32.8834 36.6986C31.528 37.3053 30.3748 37.8413 30.3206 37.8898C30.2665 37.9382 32.9944 39.4384 36.3828 41.2236L42.5433 44.4694L45.175 43.0882C46.6223 42.3286 47.853 41.6357 47.9096 41.5485C48.0372 41.3526 48.0263 29.7803 47.8985 29.796C47.848 29.8021 47.5258 29.9463 47.1828 30.1164ZM32.6096 43.6993C32.1531 43.8984 31.6967 44.0978 31.2405 44.2975C29.8627 44.9023 30.1327 44.9224 28.4936 44.0945C27.4019 43.5431 26.9314 43.373 26.7271 43.4555C26.5739 43.5175 25.2553 44.1194 23.7967 44.7931C22.3382 45.4668 21.0942 46.0179 21.0323 46.0179C20.4204 46.0179 21.4377 46.6347 25.3635 48.6439L29.9675 51L31.9046 50.0297C32.9701 49.496 35.119 48.4273 36.6802 47.6548C38.2412 46.8822 39.4991 46.23 39.4756 46.2054C39.4519 46.1809 38.1438 45.4994 36.5687 44.6909L33.7049 43.2213L32.6096 43.6993Z" fill="white"/>
</g>
<defs>
<clipPath id="clip0_423_45">
<rect width="60" height="60" fill="white"/>
</clipPath>
</defs>
</svg>
