<svg width="60" height="60" viewBox="0 0 60 60" fill="none" xmlns="http://www.w3.org/2000/svg">
<g clip-path="url(#clip0_423_42)">
<path d="M12.4377 28.4822C12.4378 28.1482 12.5038 27.8175 12.632 27.5091C12.7602 27.2006 12.9481 26.9206 13.1849 26.685C13.4217 26.4494 13.7026 26.2628 14.0116 26.1361C14.3207 26.0094 14.6517 25.945 14.9857 25.9465L19.2103 25.9603C19.8839 25.9603 20.5298 26.2279 21.0061 26.7041C21.4824 27.1804 21.75 27.8264 21.75 28.4999V44.4737C22.2256 44.3326 22.8364 44.1821 23.5048 44.0247C23.969 43.9157 24.3828 43.6529 24.6789 43.2791C24.975 42.9053 25.1362 42.4424 25.1361 41.9655V22.1508C25.1361 21.4771 25.4036 20.8312 25.8799 20.3548C26.3561 19.8784 27.0021 19.6107 27.6757 19.6106H31.9087C32.5823 19.6107 33.2282 19.8784 33.7045 20.3548C34.1808 20.8312 34.4484 21.4771 34.4484 22.1508V40.5408C34.4484 40.5408 35.5082 40.1119 36.5405 39.6762C36.924 39.514 37.2512 39.2425 37.4814 38.8956C37.7116 38.5486 37.8345 38.1415 37.8349 37.7252V15.8016C37.8349 15.1281 38.1024 14.4822 38.5786 14.006C39.0547 13.5296 39.7006 13.2621 40.374 13.2619H44.607C45.2806 13.2619 45.9266 13.5295 46.4029 14.0058C46.8791 14.482 47.1467 15.128 47.1467 15.8016V33.8552C50.8166 31.1955 54.5356 27.9968 57.4869 24.1504C57.9152 23.5921 58.1985 22.9366 58.3116 22.2421C58.4248 21.5478 58.3643 20.8361 58.1356 20.1708C56.7693 16.2402 54.598 12.638 51.7598 9.59487C48.9216 6.55169 45.4795 4.13452 41.6535 2.49803C37.8276 0.86154 33.7021 0.041774 29.5412 0.091189C25.3802 0.140604 21.2755 1.05811 17.4895 2.785C13.7035 4.51189 10.3197 7.0101 7.55464 10.1198C4.78958 13.2295 2.70414 16.8822 1.43179 20.8442C0.159446 24.8061 -0.271794 28.99 0.165665 33.1282C0.603123 37.2664 1.89965 41.2677 3.97228 44.876C4.33333 45.4984 4.86451 46.0049 5.50343 46.336C6.14233 46.667 6.86243 46.8088 7.57918 46.7449C8.37984 46.6745 9.37672 46.5747 10.562 46.4355C11.0779 46.3769 11.5543 46.1306 11.9003 45.7434C12.2463 45.3562 12.4378 44.8553 12.4382 44.336L12.4377 28.4822Z" fill="white"/>
<path d="M12.3453 54.1028C16.8071 57.3487 22.0799 59.2972 27.5804 59.7325C33.0809 60.1672 38.5946 59.0725 43.5114 56.5682C48.4281 54.0639 52.5561 50.2485 55.439 45.5439C58.3215 40.8391 59.8466 35.4286 59.8451 29.9109C59.8451 29.2224 59.8131 28.5412 59.7674 27.864C48.84 44.1613 28.6638 51.7805 12.3462 54.1003" fill="#8B8B8B"/>
</g>
<defs>
<clipPath id="clip0_423_42">
<rect width="60" height="60" fill="white"/>
</clipPath>
</defs>
</svg>
