<svg width="60" height="60" viewBox="0 0 60 60" fill="none" xmlns="http://www.w3.org/2000/svg">
<g clip-path="url(#clip0_423_31)">
<circle cx="30" cy="30" r="30" fill="#FF00C7"/>
<path d="M25.1351 15.7027C24.5676 15.6216 24.5405 15.5946 24.8108 15.5676C25.3243 15.4865 26.5135 15.5946 27.3514 15.7838C29.2973 16.2433 31.0541 17.4324 32.9189 19.5135L33.4054 20.0811L34.1081 19.973C37.1081 19.4865 40.1892 19.8649 42.7568 21.0541C43.4595 21.3784 44.5676 22.027 44.7027 22.1892C44.7568 22.2433 44.8378 22.5946 44.8919 22.946C45.0811 24.2162 45 25.1622 44.5946 25.8919C44.3784 26.2973 44.3784 26.4054 44.5135 26.7568C44.6216 27.027 44.946 27.2162 45.2432 27.2162C45.8919 27.2162 46.5676 26.1892 46.8919 24.7568L47.027 24.1892L47.2703 24.4595C48.6487 26 49.7297 28.1351 49.8919 29.6487L49.946 30.0541L49.7027 29.7027C49.2973 29.0811 48.9189 28.6757 48.4054 28.3243C47.4865 27.7027 46.5135 27.5135 43.946 27.3784C41.6216 27.2433 40.2973 27.0541 39 26.6216C36.7838 25.8919 35.6487 24.946 33.027 21.4595C31.8649 19.9189 31.1351 19.0811 30.4054 18.3784C28.8108 16.8379 27.2162 16.027 25.1351 15.7027Z" fill="white"/>
<path d="M45.2703 19.1351C45.3243 18.1081 45.4595 17.4324 45.7568 16.8108C45.8649 16.5676 45.973 16.3513 46 16.3513C46.027 16.3513 45.973 16.5405 45.8919 16.7568C45.6757 17.3513 45.6486 18.1892 45.7838 19.1351C45.973 20.3513 46.054 20.5135 47.3513 21.8378C47.9459 22.4595 48.6486 23.2432 48.9189 23.5676L49.3784 24.1622L48.9189 23.7297C48.3513 23.1892 47.054 22.1622 46.7567 22.027C46.5676 21.9189 46.5405 21.9189 46.4054 22.0541C46.2973 22.1622 46.2703 22.3243 46.2703 23.1081C46.2432 24.3243 46.0811 25.0811 45.6757 25.8649C45.4595 26.2703 45.4324 26.1892 45.6216 25.7297C45.7568 25.3784 45.7838 25.2162 45.7838 24.0541C45.7838 21.7027 45.5135 21.1351 43.8649 20.1892C43.4595 19.9459 42.7567 19.5946 42.3513 19.4054C41.9189 19.2162 41.5946 19.0541 41.6216 19.0541C41.6757 19 43.2703 19.4595 43.8919 19.7297C44.8378 20.1081 45 20.1351 45.1081 20.1081C45.1892 20.027 45.2432 19.8108 45.2703 19.1351Z" fill="white"/>
<path d="M26.2432 23.1622C25.1081 21.5946 24.3784 19.1622 24.5405 17.3514L24.5946 16.7838L24.8649 16.8378C25.3514 16.9189 26.1892 17.2432 26.5946 17.4865C27.6757 18.1351 28.1622 19.027 28.6216 21.2432C28.7568 21.8919 28.946 22.6486 29.027 22.8919C29.1622 23.2973 29.6757 24.2432 30.1081 24.8378C30.4054 25.2703 30.2162 25.4865 29.5405 25.4324C28.5135 25.3243 27.1351 24.3784 26.2432 23.1622Z" fill="white"/>
<path d="M43.8919 34.9189C38.5405 32.7568 36.6487 30.8919 36.6487 27.7297C36.6487 27.2703 36.6757 26.8919 36.6757 26.8919C36.7027 26.8919 36.8919 27.0541 37.1351 27.2432C38.2162 28.1081 39.4324 28.4865 42.8108 28.973C44.7838 29.2703 45.9189 29.4865 46.9459 29.8378C50.2162 30.9189 52.2432 33.1351 52.7297 36.1351C52.8649 37 52.7838 38.6486 52.5676 39.5135C52.3784 40.1892 51.8378 41.4324 51.7027 41.4595C51.6757 41.4595 51.6216 41.3243 51.6216 41.1081C51.5676 39.973 51 38.8919 50.0541 38.0541C48.9189 37.0811 47.4595 36.3513 43.8919 34.9189Z" fill="white"/>
<path d="M40.1081 35.8108C40.0541 35.4054 39.9189 34.8919 39.8378 34.6757L39.7027 34.2703L39.946 34.5676C40.2973 34.973 40.5676 35.4595 40.8108 36.1351C41 36.6486 41 36.8108 41 37.6486C41 38.4595 40.973 38.6486 40.8108 39.1081C40.5405 39.8378 40.2162 40.3513 39.6757 40.9189C38.7027 41.9189 37.4324 42.4595 35.6216 42.7027C35.2973 42.7297 34.3784 42.8108 33.5676 42.8649C31.5405 42.973 30.1892 43.1892 28.973 43.6216C28.8108 43.6757 28.6487 43.7297 28.6216 43.7027C28.5676 43.6486 29.4054 43.1622 30.0811 42.8378C31.027 42.3784 32 42.1351 34.1351 41.7567C35.1892 41.5946 36.2703 41.3784 36.5405 41.2703C39.2162 40.4324 40.5405 38.3513 40.1081 35.8108Z" fill="white"/>
<path d="M42.5676 40.1622C41.8649 38.6216 41.7027 37.1622 42.0811 35.7838C42.1351 35.6487 42.1892 35.5135 42.2432 35.5135C42.2973 35.5135 42.4595 35.5946 42.6216 35.7027C42.9459 35.9189 43.6216 36.2973 45.3514 37.2432C47.5405 38.4324 48.7838 39.3514 49.6486 40.4054C50.4054 41.3243 50.8649 42.3784 51.0811 43.6757C51.2162 44.4054 51.1351 46.1622 50.9459 46.8919C50.3514 49.1892 49 51.027 47.027 52.0811C46.7297 52.2432 46.4865 52.3514 46.4595 52.3514C46.4324 52.3514 46.5405 52.0811 46.7027 51.7568C47.3514 50.3784 47.4324 49.0541 46.9459 47.5676C46.6486 46.6487 46.027 45.5405 44.7838 43.6757C43.2973 41.5135 42.9459 40.946 42.5676 40.1622Z" fill="white"/>
<path d="M22.4324 48.4324C24.4324 46.7568 26.8919 45.5676 29.1622 45.1892C30.1351 45.027 31.7568 45.0811 32.6487 45.3243C34.0811 45.7027 35.3784 46.5135 36.0541 47.5135C36.7027 48.4865 37 49.3243 37.2973 51.1892C37.4054 51.9189 37.5405 52.6757 37.5676 52.8378C37.7838 53.8108 38.2162 54.5676 38.7568 54.973C39.5946 55.5946 41.0541 55.6216 42.4865 55.0811C42.7297 55 42.9459 54.9189 42.9459 54.9459C43 55 42.2703 55.4865 41.7838 55.7297C41.1081 56.0811 40.5676 56.1892 39.8378 56.1892C38.5405 56.1892 37.4324 55.5135 36.5405 54.1622C36.3514 53.8919 35.973 53.1081 35.6487 52.3784C34.7027 50.1892 34.2162 49.5405 33.1081 48.8108C32.1351 48.1892 30.8919 48.0541 29.9459 48.5135C28.7027 49.1081 28.3784 50.7027 29.2432 51.6757C29.5946 52.0811 30.2432 52.4054 30.7838 52.4865C31.7838 52.6216 32.6487 51.8378 32.6487 50.8378C32.6487 50.1892 32.4054 49.8108 31.7568 49.5135C30.8919 49.1351 29.9459 49.5676 29.973 50.4054C29.973 50.7568 30.1351 50.973 30.4865 51.1351C30.7027 51.2432 30.7027 51.2432 30.5405 51.2162C29.7568 51.0541 29.5676 50.0811 30.1892 49.4595C30.9459 48.7027 32.5405 49.027 33.0811 50.0811C33.2973 50.5135 33.3243 51.3784 33.1351 51.9189C32.6757 53.1081 31.3784 53.7297 30.0541 53.3784C29.1622 53.1351 28.7838 52.8919 27.7027 51.7838C25.8108 49.8378 25.0811 49.4595 22.3784 49.0541L21.8649 48.973L22.4324 48.4324Z" fill="white"/>
<path fill-rule="evenodd" clip-rule="evenodd" d="M8.21622 4.94595C14.5135 12.5946 24.2162 24.4865 24.7027 25.1351C25.1081 25.6757 24.9459 26.1892 24.2703 26.5676C23.8919 26.7838 23.1081 27 22.7297 27C22.2973 27 21.7838 26.7838 21.4324 26.4324C21.1892 26.1892 20.1351 24.6486 17.7568 20.9459C15.9459 18.1081 14.4054 15.7568 14.3784 15.7297C14.2703 15.6757 14.2703 15.6757 17.5676 21.5676C19.6487 25.2703 20.3243 26.5946 20.3243 26.7568C20.3243 27.1081 20.2162 27.2973 19.7838 27.7838C19.0541 28.5946 18.7297 29.5135 18.4865 31.4324C18.2162 33.5676 17.4865 35.0811 15.4054 37.6486C14.1892 39.1622 14 39.4324 13.7027 40.0541C13.3243 40.8108 13.2162 41.2432 13.1622 42.2162C13.1081 43.2432 13.2162 43.8919 13.5135 44.8649C13.7838 45.7297 14.0811 46.2973 14.8108 47.4054C15.4324 48.3784 15.8108 49.1081 15.8108 49.3784C15.8108 49.5946 15.8649 49.5946 16.8378 49.3784C19.1622 48.8378 21.0811 47.9189 22.1351 46.7838C22.7838 46.0811 22.9459 45.7027 22.9459 44.7297C22.9459 44.1081 22.9189 43.973 22.7568 43.5946C22.4865 43 21.973 42.5135 20.8649 41.7568C19.4054 40.7568 18.7838 39.9459 18.6216 38.8649C18.4865 37.9459 18.6487 37.3243 19.4595 35.6216C20.2973 33.8649 20.5135 33.1351 20.6487 31.3513C20.7297 30.2162 20.8649 29.7568 21.1892 29.4054C21.5405 29.027 21.8378 28.8919 22.6757 28.7838C24.0541 28.5946 24.9459 28.2432 25.6487 27.5676C26.2703 27 26.5405 26.4324 26.5676 25.5946L26.5946 24.973L26.2432 24.5946C24.973 23.1351 7.37838 3.78378 7.2973 3.78378C7.27027 3.78378 7.7027 4.2973 8.21622 4.94595ZM16.5135 43.3784C16.8108 42.8649 16.6487 42.2162 16.1622 41.8919C15.7027 41.5946 15 41.7297 15 42.1351C15 42.2432 15.0541 42.3513 15.2162 42.4054C15.4595 42.5405 15.4865 42.6757 15.2973 42.973C15.1081 43.2703 15.1081 43.5405 15.3514 43.7297C15.7297 44.027 16.2432 43.8649 16.5135 43.3784Z" fill="white"/>
<path fill-rule="evenodd" clip-rule="evenodd" d="M27.4595 29.1622C26.8108 29.3514 26.1892 30.0541 26 30.7568C25.8919 31.1892 25.9459 31.973 26.1351 32.2162C26.4324 32.5946 26.7027 32.7027 27.4595 32.7027C28.9459 32.7027 30.2162 32.0541 30.3514 31.2703C30.4865 30.6216 29.9189 29.7297 29.1351 29.3243C28.7297 29.1081 27.8919 29.027 27.4595 29.1622ZM29.1892 30.5135C29.4054 30.1892 29.3243 29.8378 28.9189 29.5946C28.1892 29.1351 27.0811 29.5135 27.0811 30.2162C27.0811 30.5676 27.6486 30.9459 28.1892 30.9459C28.5405 30.9459 29.027 30.7297 29.1892 30.5135Z" fill="white"/>
</g>
<defs>
<clipPath id="clip0_423_31">
<rect width="60" height="60" fill="white"/>
</clipPath>
</defs>
</svg>
