<svg width="60" height="60" viewBox="0 0 60 60" fill="none" xmlns="http://www.w3.org/2000/svg">
<g clip-path="url(#clip0_424_47)">
<path d="M30 60C46.5685 60 60 46.5685 60 30C60 13.4315 46.5685 0 30 0C13.4315 0 0 13.4315 0 30C0 46.5685 13.4315 60 30 60Z" fill="black"/>
<path d="M41.1397 14H46.8132L34.4182 27.9785L49 47H37.5825L28.64 35.4635L18.4076 47H12.7306L25.9884 32.0485L12 14H23.7073L31.7906 24.5448L41.1397 14ZM39.1484 43.6492H42.2922L21.9991 17.1748H18.6255L39.1484 43.6492Z" fill="white"/>
</g>
<defs>
<clipPath id="clip0_424_47">
<rect width="60" height="60" fill="white"/>
</clipPath>
</defs>
</svg>
